# xmcd
#
# Track frame offsets:
#	150
#	22157
#	45019
#	74406
#	94933
#	111541
#	140490
#	152092
#	165471
#	176599
#	191570
#
# Disc length: 2996 seconds
#
# Revision: 1
# Processed by: cddbd v1.5.2PL0 Copyright (c) Steve Scherf et al.
# Submitted via: audiograbber 1.83.01
#
DISCID=940bb20b
DTITLE=Joachim Gies - Rilke Anthology I
DYEAR=2003
DGENRE=Jazz
TTITLE0=In Spiegelbildern/Reflections: Dem Leise Redenden - To the Silent ...
TTITLE1=In Spiegelbildern/Reflections: Der Tod Der Geliebten
TTITLE2=In Spiegelbildern/Reflections: Die Treppe Der Orangerie
TTITLE3=In Spiegelbildern/Reflections: Die Flamingos
TTITLE4=In Spiegelbildern/Reflections: Römische Fontäne
TTITLE5=Die Aufzeichnungen des Malte Laurids Brigge - The Notebooks of Malte ..
TTITLE5=
TTITLE6=In Spiegelbildern - Reflections: Pt. 2
TTITLE7=In Spiegelbildern - Reflections: Pt. 3
TTITLE8=In Spiegelbildern - Reflections: Pt. 4
TTITLE9=In Spiegelbildern - Reflections: Pt. 5
TTITLE10=In Spiegelbildern - Reflections: Pt. 6
EXTD=
EXTT0=
EXTT1=
EXTT2=
EXTT3=
EXTT4=
EXTT5=
EXTT6=
EXTT7=
EXTT8=
EXTT9=
EXTT10=
PLAYORDER=
